{"title":"Issaq 2013 SCamRip x264 MP3 [TMB] - Hindi","uid":8744341,"size":381776834,"categoryP":"video","categoryS":"movies","magnet":"?xt=urn:btih:7a083d36d3775a035ae8cf53f98a679eaf7be36c&amp;dn=Issaq+2013+SCamRip+x264+MP3+%5BTMB%5D+-+Hindi&amp;tr=udp%3A%2F%2Ftracker.openbittorrent.com%3A80&amp;tr=udp%3A%2F%2Fopen.demonii.com%3A1337&amp;tr=udp%3A%2F%2Ftracker.coppersurfer.tk%3A6969&amp;tr=udp%3A%2F%2Fexodus.desync.com%3A6969","seeders":1,"leechers":0,"uploader":"SJonam","files":2,"time":1374880578,"description":" &lt;a href=&quot;http://desibbrg.org/images/04860107371484438516.jpg&quot; rel=&quot;nofollow&quot; target=&quot;_NEW&quot;&gt;http://desibbrg.org/images/04860107371484438516.jpg&lt;/a&gt; &lt;a href=&quot;\nhttp://desibbrg.org/images/16756403424135236279.png&quot; rel=&quot;nofollow&quot; target=&quot;_NEW&quot;&gt;\nhttp://desibbrg.org/images/16756403424135236279.png&lt;/a&gt; &lt;a href=&quot;\nhttp://desibbrg.org/images/68262474802653329497.png&quot; rel=&quot;nofollow&quot; target=&quot;_NEW&quot;&gt;\nhttp://desibbrg.org/images/68262474802653329497.png&lt;/a&gt; &lt;a href=&quot;\nhttp://desibbrg.org/images/12243762403951202733.png&quot; rel=&quot;nofollow&quot; target=&quot;_NEW&quot;&gt;\nhttp://desibbrg.org/images/12243762403951202733.png&lt;/a&gt; &lt;a href=&quot;\nhttp://desibbrg.org/images/27491120390333581965.png&quot; rel=&quot;nofollow&quot; target=&quot;_NEW&quot;&gt;\nhttp://desibbrg.org/images/27491120390333581965.png&lt;/a&gt; &lt;a href=&quot;\nhttp://desibbrg.org/images/00030467309295099673.png&quot; rel=&quot;nofollow&quot; target=&quot;_NEW&quot;&gt;\nhttp://desibbrg.org/images/00030467309295099673.png&lt;/a&gt;\n\nMedia Info -\nGeneral\nComplete name : Issaq 2013 SCamRip x264 MP3 [TMB].avi\nFormat : AVI\nFormat/Info : Audio Video Interleave\nFile size : 359 MiB\nDuration : 2h 10mn\nOverall bit rate : 384 Kbps\nWriting application : Lavf54.63.104\n\nVideo\nFormat : AVC\nFormat/Info : Advanced Video Codec\nFormat profile : &lt;a class=&quot;__cf_email__&quot; href=&quot;/cdn-cgi/l/email-protection&quot; data-cfemail=&quot;efa28e8681afa3dec1dc&quot;&gt;[email&amp;#160;protected]&lt;/a&gt;&lt;script cf-hash='f9e31' type=&quot;text/javascript&quot;&gt;\n/* &lt;![CDATA[ */!function(){try{var t=&quot;currentScript&quot;in document?document.currentScript:function(){for(var t=document.getElementsByTagName(&quot;script&quot;),e=t.length;e--;)if(t[e].getAttribute(&quot;cf-hash&quot;))return t[e]}();if(t&amp;&amp;t.previousSibling){var e,r,n,i,c=t.previousSibling,a=c.getAttribute(&quot;data-cfemail&quot;);if(a){for(e=&quot;&quot;,r=parseInt(a.substr(0,2),16),n=2;a.length-n;n+=2)i=parseInt(a.substr(n,2),16)^r,e+=String.fromCharCode(i);e=document.createTextNode(e),c.parentNode.replaceChild(e,c)}}}catch(u){}}();/* ]]&gt; */&lt;/script&gt;\nFormat settings, CABAC : Yes\nFormat settings, ReFrames : 1 frame\nCodec ID : H264\nDuration : 2h 10mn\nBit rate : 115 Kbps\nWidth : 384 pixels\nHeight : 176 pixels\nDisplay aspect ratio : 2.2:1\nFrame rate mode : Variable\nFrame rate : 25.000 fps\nColor space : YUV\nChroma subsampling : 4:2:0\nBit depth : 8 bits\nScan type : Progressive\nBits/(Pixel*Frame) : 0.068\nStream size : 107 MiB (30%)\n\n\nAudio\nFormat : MPEG Audio\nFormat version : Version 1\nFormat profile : Layer 3\nMode : Joint stereo\nMode extension : MS Stereo\nCodec ID : 55\nCodec ID/Hint : MP3\nDuration : 2h 10mn\nBit rate mode : Constant\nBit rate : 256 Kbps\nChannel(s) : 2 channels\nSampling rate : 48.0 KHz\nCompression mode : Lossy\nStream size : 240 MiB (67%)\nAlignment : Aligned on interleaves\nInterleave, duration : 24 ms (0.60 video frame)\nWriting library : LAME3.99.5\n\n\nSample in Torrent\n\nRipper : Manojvb\n\nSeeding 24x7... Extreme Seeding...\n &lt;a href=&quot;\nhttp://desibbrg.org/images/48627592875446061657.gif&quot; rel=&quot;nofollow&quot; target=&quot;_NEW&quot;&gt;\nhttp://desibbrg.org/images/48627592875446061657.gif&lt;/a&gt;","torrent":{"xt":"urn:btih:7a083d36d3775a035ae8cf53f98a679eaf7be36c","amp;dn":"Issaq+2013+SCamRip+x264+MP3+%5BTMB%5D+-+Hindi","amp;tr":["udp%3A%2F%2Ftracker.openbittorrent.com%3A80","udp%3A%2F%2Fopen.demonii.com%3A1337","udp%3A%2F%2Ftracker.coppersurfer.tk%3A6969","udp%3A%2F%2Fexodus.desync.com%3A6969"],"infoHash":"7a083d36d3775a035ae8cf53f98a679eaf7be36c","infoHashBuffer":{"type":"Buffer","data":[122,8,61,54,211,119,90,3,90,232,207,83,249,138,103,158,175,123,227,108]},"announce":[],"urlList":[]}}